<?xml version="1.0" encoding="utf-8"?>
<!-- Generator: Adobe Illustrator 25.0.1, SVG Export Plug-In . SVG Version: 6.00 Build 0)  -->
<svg version="1.1" id="Capa_1" xmlns="http://www.w3.org/2000/svg" xmlns:xlink="http://www.w3.org/1999/xlink" x="0px" y="0px"
	 viewBox="0 0 508.2 521.5" style="enable-background:new 0 0 508.2 521.5;" xml:space="preserve">
<style type="text/css">
	.st0{fill:#FFFFFF;}
	.st1{fill:#C49F76;}
	.st2{opacity:0.3;}
	.st3{fill:#1D1D1B;}
</style>
<g id="Layer_1">
</g>
<g id="Layer_2">
	<path class="st0" d="M242,505.7C116.7,500.5,7.2,392.5,1.5,267c3-143.6,124-257.1,265.2-251.2C399.4,21.3,514.5,142.2,507,277.1
		C492.4,409.8,375.6,511.2,242,505.7z"/>
	<g>
		<g>
			<g>
				<path class="st1" d="M127.3,244.1c0-0.1-0.1,0.7-0.2,2.7c-0.2,3.7-0.4,7.5-0.4,11c0,0.4,0.1,1.2,0.2,2.4
					c0.1,1.2,0.2,2.7,0.2,4.4v0.9c0,0.9-0.2,1.3-0.7,1.3c-0.5,0-1-0.5-1.4-1.5c-1-2.1-1.8-3.5-2.8-4.2c-4.7,4.2-10.4,6.2-17,6.2
					c-9.6,0-17.6-3.3-23.9-10.1c-6.3-6.7-9.4-15.2-9.4-25.4c0-10.3,2.9-18.6,8.7-25.2c5.8-6.5,13.3-9.7,22.5-9.7c3.3,0,6,0.3,8,0.9
					c2,0.5,4.5,1.7,7.4,3.4c1.4,0.9,2.6,1.3,3.2,1.3c0.6,0,1.2-0.5,1.7-1.6c0.9-1.8,1.5-2.8,2-2.8c0.5,0,0.7,0.2,0.7,0.7
					c0,0.2-0.1,0.6-0.2,1.3c-0.7,3.1-1.1,9-1.1,17.7c0,1.3-0.1,1.9-0.3,2.1s-0.4,0.3-0.7,0.3c-0.6,0-1.1-0.6-1.3-1.8
					c-0.9-5.2-2-9.1-3.6-11.7c-3.2-5.2-8.2-7.8-15.1-7.8c-5.4,0-9.5,1.8-12.5,5.4c-5.6,6.3-8.3,15.6-8.3,27.8
					c0,10.9,2.2,19.4,6.9,25.4c4,5.2,9.3,7.8,16,7.8c3.4,0,6.5-0.9,9.3-2.5c2.8-1.7,4.9-4,6.5-6.9c1.7-3.3,2.9-7,3.6-10.9
					c0.2-1.6,0.6-2.4,1.3-2.4C127,242.6,127.3,243.1,127.3,244.1z"/>
			</g>
		</g>
		<g>
			<g>
				<path class="st1" d="M153.3,265.4c0,0.6-0.5,0.9-1.7,0.9c0.1,0-0.7-0.1-2.4-0.2c-1.9-0.1-3.6-0.2-4.9-0.2h-10.2
					c-0.3,0.2-0.7,0.4-1.2,0.4c-0.7,0-1.1-0.2-1.1-0.7c0-0.6,0.6-1.1,1.9-1.1c2.5-0.1,3.9-0.2,4.1-0.5c0.2-0.3,0.3-1.6,0.3-4.1
					l-0.1-29.8c-0.1-1.6-0.1-2.6-0.2-2.9c-0.1-0.3-0.5-0.4-1.2-0.4h-2.8c-0.2,0-0.5,0-1,0c-0.7,0-1.1-0.2-1.1-0.6
					c0-0.4,0.5-0.6,1.6-0.6c4.3-0.2,8-1.2,11.1-3.1l1-0.5c0.5,1,0.7,2.8,0.7,5.4c0-0.1,0,0.2,0,1c0,0.7,0,2,0,3.9v26.8
					c0,2.6,0,4.2,0.1,4.6s0.4,0.7,1.1,0.9c1,0.2,2.5,0.4,4.3,0.4C152.9,264.5,153.3,264.9,153.3,265.4z M154.7,200.8l-8.9,9.4
					c-4,4.2-6.2,6.2-6.9,6.2c-0.4,0-0.5-0.2-0.5-0.5c0-0.1,0.1-0.3,0.2-0.5c0.7-1.8,1.8-4.3,3.2-7.7l3.1-6.9h3.2c0.1,0,0.5,0,1.4,0
					c0.9,0,2,0,3.4,0L154.7,200.8L154.7,200.8z"/>
			</g>
		</g>
		<g>
			<g>
				<path class="st1" d="M187.3,228.9c0,1.5-0.4,2.8-1.4,3.7c-1,1-2.1,1.5-3.5,1.5c-1.2,0-2.1-0.3-3-1.1c-0.7-0.6-1.2-1.6-1.2-2.6
					s0.3-1.7,0.9-2.4c0.5-0.6,0.9-1.1,0.9-1.4c0-1-0.7-1.5-2.1-1.5c-1.8,0-3.4,1.2-4.7,3.4c-1.5,2.7-2.2,7.6-2.2,14.9v19.4
					c0,0.7,0.3,1.3,0.9,1.5c0.5,0.2,2.2,0.3,5,0.4c0.7,0.1,1.1,0.4,1.1,0.7c0,0.4-0.4,0.6-1.3,0.6c-1.5,0-2.9,0-4.2,0
					c-1.3,0-3.7,0-7.5,0c-1.9,0-3.3,0-4.2,0c-0.9,0-1.9,0-3.2,0c-1.1,0-1.6-0.2-1.6-0.6c0-0.4,0.4-0.6,1.3-0.6h1.4
					c2.2,0,3.5-0.2,4-0.7c0.1-0.2,0.2-1.5,0.2-3.6v-27.1c0-3.6-0.5-5.7-1.6-6.3c-1.1-0.5-2.8-0.9-5.1-1c-0.7,0-1.2-0.2-1.2-0.6
					c0-0.4,0.3-0.6,1-0.6h0.6c1,0,1.9,0,3,0.1c1,0.1,1.4,0.1,1.3,0.1c2.5,0,5.1-0.6,8-2l1.3-0.6l0.7-0.3c0.2,1.6,0.4,3.1,0.4,4.7
					v1.9c2.1-4.5,5-6.6,8.9-6.6c2.1,0,3.9,0.6,5.2,1.9C186.5,225.4,187.3,227,187.3,228.9z"/>
			</g>
		</g>
		<g>
			<g>
				<path class="st1" d="M226,232.1c0,3-1.5,4.5-4.4,4.5c-2.9,0-4.3-1.4-4.3-4.2c0-0.7,0.3-1.8,1-3.2c0.2-0.4,0.3-1,0.3-1.4
					c0-1.3-0.6-2.4-2-3.2c-1.4-0.9-3-1.3-5-1.3c-4,0-7,1.7-9.1,5.1c-2.1,3.4-3.2,8.1-3.2,14.3c0,7,1.1,12.3,3.3,16.1
					c2.2,3.7,5.4,5.7,9.4,5.7c2.8,0,5.2-0.9,7.4-2.6c1-0.7,2.2-2.2,3.9-4.5c0.3-0.3,0.6-0.5,0.9-0.5c0.6,0,1,0.2,1,0.7
					c0,0.9-1.2,2.5-3.4,4.8c-3,3.1-6.7,4.6-11.2,4.6c-5.8,0-10.5-2-14.2-6.2c-3.7-4.2-5.7-9.3-5.7-15.6c0-6.7,2-12.3,6-16.7
					c4-4.4,9-6.6,15-6.6c3.9,0,7.3,1,10.3,3C224.5,227.1,226,229.4,226,232.1z"/>
			</g>
		</g>
		<g>
			<g>
				<path class="st1" d="M276.2,262.6c0,0.4-0.7,0.7-2.1,0.7c-5.1,0.3-9.6,1.4-13.5,3.3c-0.2,0.1-0.5,0.2-0.6,0.2
					c-0.4,0-0.6-0.2-0.6-0.7v-5.5c-3,4.2-7.2,6.3-12.5,6.3c-4.8,0-8.2-1.4-10.3-4.2c-0.9-1.2-1.4-2.2-1.5-3.2
					c-0.2-1-0.2-3.6-0.2-7.9v-22.4c0-2.2-0.1-3.6-0.4-4c-0.2-0.4-1.2-0.6-2.7-0.6h-1.3c-1.8,0.1-2.7-0.1-2.7-0.7
					c0-0.4,0.5-0.6,1.7-0.6c1.2,0,2.9,0.1,5.1,0.2c1.1,0.1,1.8,0.1,1.9,0.1c2.2,0,4.4-0.1,6.4-0.4v27.3c0,5,0.3,8.3,1,10
					c1.1,2.6,3.2,3.9,6.4,3.9c3.4,0,6-1.4,7.7-4.3c1.2-2,1.8-5.4,1.8-10v-15.3c0-2.2-0.1-3.9-0.3-5v-3.2c-0.1-1-0.3-1.5-0.6-1.7
					c-0.3-0.2-1.1-0.2-2.2-0.2c-2.8,0.1-4.2-0.2-4.2-0.9c0-0.4,0.6-0.5,2-0.5h0.9c0.5,0,2.2,0,5.2,0c4,0,6.3,0,7.3,0v27.4
					c0,4.7,0.1,7.7,0.3,8.9c0.2,1.3,0.6,1.9,1.5,2.1c0.9,0.2,2.7,0.3,5.5,0.3C275.9,262,276.2,262.2,276.2,262.6z"/>
			</g>
		</g>
		<g>
			<g>
				<path class="st1" d="M297.4,265.3c0,0.5-0.4,0.9-1.3,0.9h-1.2c-0.1,0-1.8-0.1-5.2-0.2h-3c-0.5,0-3.1,0-7.8,0.1
					c-0.4,0-0.7,0-1.2,0c-1,0.1-1.5-0.2-1.5-0.9c0-0.4,0.3-0.6,1.1-0.6h2.6c1.8,0,2.8-0.4,2.8-1.2c0.1-0.4,0.1-3,0.1-7.7v-49.8
					c0-2.1-0.1-3.3-0.2-3.5c-0.2-0.5-0.7-0.7-1.6-0.7h-0.7h-2.8c-1,0-1.4-0.3-1.4-0.9s0.9-0.7,2.5-0.9c3.1-0.2,6.1-1,8.8-2.1l2-1
					l0.7-0.3c0.5,1.9,0.7,4.8,0.6,8.7v7v48.1c0,1.9,0,3.1,0.1,3.5c0.1,0.3,0.3,0.6,0.6,0.7c0.1,0.1,1.3,0.1,3.6,0.2
					C296.7,264.5,297.4,264.9,297.4,265.3z"/>
			</g>
		</g>
		<g>
			<g>
				<path class="st1" d="M342.4,244.7c0,6.3-1.9,11.7-5.8,16c-3.9,4.3-8.7,6.4-14.5,6.4c-6,0-10.9-2.1-14.9-6.4c-4-4.3-6-9.6-6-16
					c0-6.5,1.9-12,5.9-16.3c3.9-4.3,8.8-6.5,14.6-6.5c5.9,0,10.8,2.1,14.8,6.5C340.4,232.9,342.4,238.3,342.4,244.7z M333.5,244.6
					c0-7.2-1.1-12.7-3.3-16.8c-1.6-3-4.4-4.4-8.2-4.4c-3.6,0-6.5,1.9-8.6,5.7c-2,3.7-3.1,9-3.1,15.6c0,6.6,1.1,11.8,3.3,15.4
					c2.1,3.7,5.2,5.6,9.2,5.6c3,0,5.2-1.2,6.6-3.4C332.1,258,333.5,252.1,333.5,244.6z"/>
			</g>
		</g>
		<g>
			<g>
				<path class="st1" d="M136.1,347.1c0,0.5-0.4,0.9-1.2,0.9h-1c-0.4-0.2-4.8-0.3-13.4-0.3c-1.6,0-3.3,0.1-4.9,0.2
					c-0.9,0.1-2.1,0.1-4,0.1c-0.9,0-1.3-0.3-1.3-0.9s0.9-0.9,2.6-0.9c2.6-0.1,4.2-0.4,4.6-1c0.4-0.5,0.6-2.5,0.6-5.7v-51.8
					c0-3.2-0.2-5-0.5-5.5c-0.4-0.6-2.2-1.1-5.5-1.2c-1.3-0.1-1.9-0.3-1.9-0.6c0-0.5,0.4-0.7,1.2-0.7h13.4c1,0,2.9,0,5.8,0.1l3.7-0.1
					c1.1,0,1.6,0.3,1.6,0.9s-1.5,0.9-4.4,1c-1.6,0.1-2.7,0.3-3,0.9s-0.5,1.9-0.5,4.2V339c0,3.7,0.2,5.8,0.5,6.1
					c0.7,0.7,2.9,1.2,6.4,1.3C135.8,346.2,136.1,346.5,136.1,347.1z"/>
			</g>
		</g>
		<g>
			<g>
				<path class="st1" d="M211.9,347.3c0,0.5-0.6,0.9-2,0.9h-1.1c-1,0-2.6,0-5,0c-2.5,0-4.3,0-5.6,0c-1.9,0-4.3,0-6.9,0
					c-2.7,0-4.4,0-5.2,0h-0.6c-1.4,0-2-0.3-2-0.9c0-0.6,1-1,2.9-1c3.3,0,5.4-0.3,6.1-1.1c0.3-0.3,0.5-2.6,0.5-6.6v-51
					c0,0.1-0.4,1.2-1.2,3.4c-2.7,7.9-6.4,19.8-11.5,35.8l-4.6,15.6c-1,3.1-1.6,4.6-1.9,4.6c-0.4,0-1-0.7-1.5-2.4
					c-1.9-6-7.3-20.8-16.1-44.5l-3.9-10.5c0,1.3,0,3,0,5.1v31.9c0,12,0.1,18,0.3,18.2c0.4,0.9,2,1.3,4.7,1.3c2.1,0,3.2,0.3,3.2,1
					c0,0.7-0.6,1.1-2,1.1c-0.9,0-1.6-0.1-2.4-0.2c-1-0.1-1.7-0.2-2.5-0.2l-11.2,0.4c-1.2,0-1.8-0.3-1.8-0.9c0-0.6,1.8-1,5.6-1.1
					c1.6,0,2.5-0.2,2.8-0.7c0.2-0.5,0.4-2.2,0.4-5.1v-47.1c0-5.5-0.1-8.3-0.2-8.9c-0.2-1-0.9-1.5-1.7-1.8c-0.9-0.3-2.7-0.6-5.5-0.7
					c-1.1-0.1-1.6-0.3-1.6-0.9c0-0.7,1-1.1,2.9-1.1c0.2,0,0.9,0,1.7,0h5.1c3.9,0,6.6,0,8.2-0.1c0.3,0.9,2.2,6,5.7,15.4
					c1.5,4,5.7,15.4,12.5,34.4c1.3-4.3,2.5-8.5,3.9-12.6l10.5-32.4c0.6-1.8,1.2-3.4,1.7-4.6l14.6-0.1c2.1,0,3.3,0.1,3.6,0.3
					c0.3,0.2,0.5,0.5,0.5,0.9c0,0.6-0.5,1-1.7,1c-1.8,0-3.1,0.1-3.7,0.2c-1.6,0.2-2.7,0.7-3.2,1.6c-0.3,0.4-0.5,4.3-0.5,11.6v45.8
					c0,2.7,0.2,4.2,0.7,4.6c0.9,0.6,3,0.9,6.4,0.9h0.5C211.2,346.4,211.9,346.8,211.9,347.3z"/>
			</g>
		</g>
		<g>
			<g>
				<path class="st1" d="M276,347.3c0,0.5-0.5,0.9-1.5,0.9c-0.6,0-1.3,0-1.8-0.1l-12.4-0.4l-12.4,0.4c-0.4,0.1-1,0.1-1.5,0.1
					c-1.3,0-1.9-0.3-1.9-1.1s0.9-1.2,2.7-1.2c5.8-0.1,8.7-0.6,8.7-1.7c0-0.1-0.1-0.3-0.2-0.7l-0.7-2.6l-0.5-1.4
					c-0.5-2-2-6.5-4.3-13.5h-21c-4,10.5-5.9,16.5-5.9,18.1c0,1,0.4,1.5,1.2,1.7c0.2,0.1,1.8,0.2,4.9,0.4c1.9,0.1,2.9,0.4,2.9,1
					c0,0.6-0.9,1-2.6,1c-3,0-6.5-0.1-10.5-0.4c-1-0.1-2-0.1-3-0.1c-1.1,0-2,0.1-3,0.3c-0.5,0.1-1,0.2-1.3,0.2c-1,0-1.4-0.3-1.4-0.9
					c0-0.6,1.1-1,3.1-1c2-0.1,3.5-0.4,4.5-1c1-0.5,1.6-1.6,2.1-3.2c8.5-24.2,15.3-43.6,20.6-58.2c0.1-0.7,0.4-1.6,1-2.6l0.4-1.8
					c0.2-0.7,0.4-1.1,0.7-1.1c0.2,0,0.3,0.2,0.5,0.6c0.9,2.6,2.8,7.9,5.8,16c2.4,6.3,8.2,22.3,17.6,47.9c0.5,1.5,1.2,2.5,2,2.8
					c0.9,0.4,2.5,0.6,5,0.7C275.2,346.4,276,346.8,276,347.3z M249.4,323.7c-1.1-3-2.8-7.8-5.2-14.7l-4.7-13.6
					c-2.8,7.3-6.1,16.7-10,28.3L249.4,323.7L249.4,323.7z"/>
			</g>
		</g>
		<g>
			<g>
				<path class="st1" d="M338.9,327.3c0,0.5-0.3,0.7-0.9,0.7h-2.2c-3-0.1-4.7,0.4-5.1,1.6c-0.2,0.7-0.4,3.6-0.4,8.5v3.1
					c-3.3,2.9-6.5,4.9-9.6,6.1c-3.1,1.2-6.9,1.7-11.1,1.7c-10.4,0-18.5-3.1-24.6-9.3c-6.1-6.2-9.1-14.6-9.1-25.2
					c0-10.7,3-19.4,8.9-26c6-6.6,13.8-10,23.6-10c4.3,0,8.9,1.2,13.9,3.5c1.5,0.7,2.8,1.1,3.7,1.1c1.3,0,2-0.7,2.5-2.4
					c0.3-1,0.7-1.4,1.2-1.4c0.5,0,0.7,0.2,0.7,0.7c0,0.2-0.1,0.9-0.2,2c-0.3,3.7-0.5,6.4-0.5,8v6.4c0.1,2.2,0.1,3.3,0.1,3
					c-0.1,1.6-0.5,2.4-1.3,2.4c-0.5,0-1-0.4-1-1.4c-0.3-6.4-2.1-11.3-5.5-15c-3.3-3.6-7.7-5.5-13.2-5.5c-6.9,0-12.2,3.1-16.2,9.2
					s-5.9,14.5-5.9,24.9c0,10.1,2,18.1,6,24.1c4.1,5.9,9.4,8.9,16.4,8.9c5.2,0,8.9-1.5,10.8-4.5c1-1.5,1.5-4.2,1.5-8.1
					c0-3.2-0.3-5.1-1-5.8c-0.6-0.5-2.8-0.9-6.4-0.7c-1,0-1.5,0-1.8-0.1c-0.2-0.1-0.4-0.3-0.4-0.6c0-0.7,0.7-1.1,2.1-1.1h1.8
					c1,0.1,4.5,0.1,10.4,0h8.2c0.4,0,1,0,1.5,0s0.9,0,1.1,0C338.3,326.4,338.9,326.7,338.9,327.3z"/>
			</g>
		</g>
		<g>
			<g>
				<path class="st1" d="M391.8,332.1c0,0.2-0.1,1.8-0.2,4.8c-0.1,3-0.2,5.8-0.2,8.5v3.2c-6.4-0.4-19.1-0.5-38.1-0.5
					c-2.2,0-4.5,0-6.7,0s-3.7,0-4.5,0h-1c-1.3,0-1.8-0.2-1.8-0.7c0-0.3,0.2-0.5,0.5-0.6c0.2,0,1.4-0.1,3.7-0.2
					c1.7-0.1,2.8-0.5,3.1-1.1c0.3-0.6,0.5-2.1,0.5-4.6v-55.3c0-1.9-0.3-3-0.9-3.4c-0.5-0.3-2.4-0.5-5.4-0.5c-1.1,0-1.6-0.3-1.6-0.9
					s0.7-0.9,2.1-0.9h16.8c0.6,0,4.3,0,11.1,0s11.3,0,13.7,0c1.9,0,3.7-0.1,5.4-0.4c0.1,2.8,0.4,6.7,0.9,11.7l0.4,4.2
					c0.1,0.3,0.1,0.7,0.1,1.3c0,0.6-0.3,1-0.9,1c-0.7,0-1.3-0.9-1.6-2.5c-1.3-5.9-3.3-9.6-6.1-11.2c-2.1-1.2-7.6-1.8-16.5-1.8h-8
					v28.9h2.4c7.3,0,11.8-0.5,13.4-1.7c1.6-1.1,2.7-4.4,3.3-9.7c0.1-1.4,0.5-2,1.1-2c0.7,0,1.1,0.5,1.1,1.8c0,1.2-0.1,2.9-0.2,5.2
					c-0.1,2.2-0.2,4.1-0.2,5.2c0,7,0.1,11.8,0.3,14.5c0,0.6,0.1,1.2,0.1,1.7c0,0.9-0.3,1.3-1.1,1.3c-0.4,0-0.7-0.3-1-0.9
					c-0.2-0.5-0.4-2.4-0.9-5.5c-0.5-3.9-2.1-6.2-4.8-7.2c-1.2-0.4-4.3-0.5-9.2-0.5h-4.4v32.9c14.3,0,22.8-0.3,25.4-0.9
					c4.3-1,6.7-5.1,7.4-12.4c0.1-1.6,0.5-2.5,1.3-2.5C391.5,330.1,391.8,330.7,391.8,332.1z"/>
			</g>
		</g>
		<g>
			<g>
				<path class="st1" d="M456.8,280.7c0,0.6-0.9,1-2.5,0.9h-2.1h-1.8c-1.1,0-1.7,0.2-1.8,0.5c-0.2,0.3-0.3,1.5-0.3,3.3v56.4
					c0,3.4,0,5.5-0.1,6.1c-0.1,0.5-0.2,0.9-0.5,0.9c-0.4,0-0.9-0.3-1.4-1.1l-12.5-18.4c-7.3-10.7-16.2-24.1-26.5-40.1v54.9
					c0.1,0.9,0.5,1.4,1.5,1.6s3.1,0.4,6.6,0.4c0.9,0,1.3,0.2,1.3,0.7c0,0.6-0.9,1-2.6,1c-0.6,0-2.5-0.1-5.6-0.3
					c-1.1-0.1-2-0.1-3-0.1c0.1,0-0.5,0.1-1.7,0.2c-1.2,0.1-3.1,0.2-5.6,0.2h-1c-1.5,0-2.2-0.3-2.2-0.9s0.6-0.9,1.9-0.9
					c3.9-0.1,6.1-0.3,6.7-0.7s1-1.8,1-4.2v-48.5c0-5.5-1.1-8.9-3.3-10.2c-1.1-0.6-2.9-1-5.6-1c-1.7,0-2.6-0.3-2.6-1.1
					c0-0.6,0.5-1,1.5-1c1.3,0,3,0.1,5,0.2c2,0.1,3.1,0.2,3.2,0.2c0.2,0,1.1,0,2.8-0.1c2.1,0,4.3-0.1,6.3-0.3l33.8,50.5v-43.7
					c0-2,0-3.2-0.1-3.6s-0.3-0.7-0.7-1c-0.4-0.2-2-0.3-4.7-0.3c-2.4,0-3.5-0.3-3.5-0.9c0-0.6,0.7-1,2.4-1h3.4c0.9,0,1.8,0,2.8,0
					c1.1,0,1.7,0,1.8,0s0.6,0,1.8,0c1.1,0,2,0,3,0h3C456.2,279.7,456.8,280.1,456.8,280.7z"/>
			</g>
		</g>
	</g>
	<g>
		<g class="st2">
			<g>
				<g>
					<path class="st1" d="M367,151.8c-2.7-0.2-4.5-1.4-4.9-3c-0.6-2.6,2.7-5.7,7.3-6.7c1.6-0.4,3.2-0.5,4.7-0.4
						c2.7,0.2,4.5,1.4,4.9,3c0.3,1.3-0.3,2.7-1.7,4s-3.3,2.2-5.6,2.8C370.1,151.8,368.5,152,367,151.8z"/>
				</g>
			</g>
		</g>
		<g class="st2">
			<g>
				<g>
					<path class="st1" d="M329.3,188.6c-0.1,0-0.2-0.1-0.2-0.2c0-0.1-1.9-10.9,2.5-23c7.4-20.3,26.4-28.9,41.1-32.4
						c0.1,0,0.2,0,0.3,0.2c0,0.1,0,0.3-0.2,0.3c0,0-0.4,0.1-1.1,0.3c-1.2,0.2-2.2,0.5-3.2,1c-4.8,1.7-8.9,4.5-11.6,7.9
						c-2.6,3.4-3.4,7-2.4,10c1.3,3.6,5.4,6.2,10.7,6.7c1.5,0.1,3,0.1,4.6,0c0.1,0,0.2,0.1,0.3,0.2c0,0.1-0.1,0.2-0.2,0.3
						c-12.4,1.4-34.3,10.4-40.4,28.6C329.5,188.5,329.4,188.6,329.3,188.6L329.3,188.6z"/>
				</g>
			</g>
		</g>
		<g class="st2">
			<g>
				<g>
					<path class="st1" d="M369,184.6c-2.8-0.3-5.2,0.6-5.5,2.1c-0.1,0.7,0.3,1.5,1.3,2.1c1,0.7,2.2,1.2,3.7,1.4
						c3,0.4,5.6-0.6,5.8-2.1c0.2-1.5-2.1-3.1-5-3.5C369.2,184.6,369.1,184.6,369,184.6z"/>
				</g>
			</g>
		</g>
		<g class="st2">
			<g>
				<g>
					<path class="st1" d="M375.1,174.7c-17.4-1.7-28.3,7.1-34.3,14.8c-5.1,6.6-7.7,13.6-8.6,16.2c7.4-8,21.2-12,30.3-11.1l0,0
						c-4.4-2-6-5-5.5-7.4c0.7-4,4.4-7.5,10.5-10.1C370.5,175.9,373.4,175,375.1,174.7L375.1,174.7z"/>
				</g>
			</g>
		</g>
		<g>
			<g>
				<g>
					<g>
						<path class="st3" d="M376,208c-15.6-4.8-30.6,0-42.5,11.5l0,0c0.4-0.4-0.3,0.3,0.2-0.2c11.6-11.1,26-18.3,41.3-14.1
							C375,205.1,376,206.3,376,208z"/>
					</g>
				</g>
			</g>
		</g>
		<g>
			<g>
				<g>
					<g>
						<path class="st3" d="M323.7,217.9c7.8-0.7,14.3,2.9,18.8,9.3l0,0c-0.2-0.2,0.1,0.1-0.1-0.1c-4.4-6.3-10.5-11-18.1-10.5
							C324.5,216.6,323.8,217.1,323.7,217.9z"/>
					</g>
				</g>
			</g>
		</g>
		<g>
			<g>
				<g>
					<path class="st3" d="M399.4,165.6c-1.5-0.6-2.2-0.7-3.5-1.1c-10.5-2.8-21.9-3.3-32.3-0.2c-17.9,5.2-29.2,19.6-35.3,36.6
						c0,0-0.1,0.4-0.3,0.4c-0.2,0-0.2-0.4-0.2-0.4c-6.7-20.4-6-37.4,2.2-50.5c12.7-20.4,39.5-24.3,39.7-24.3l0.1,0.5
						c-0.2,0-26.8,3.9-39.4,24.1c-8,12.8-8.9,29.5-2.5,49.5c0-0.2,0.2-0.6,0.2-0.7c2.7-7.5,6.1-14.6,11-20.9
						c9.6-12,23.7-18.5,39-18.6c6.5-0.1,13.6,0.6,19.9,2.8C398,162.6,399.1,163.7,399.4,165.6z"/>
				</g>
			</g>
			<g>
				<g>
					<g>
						<path class="st3" d="M332.5,210.3l-0.3-0.3c0,0,4.9-4.9,13.4-8.5c7.8-3.2,20.2-5.9,35.3-0.2l-0.2,0.4
							C352.1,191,332.7,210.2,332.5,210.3z"/>
					</g>
				</g>
			</g>
			<g>
				<g>
					<g>
						<g>
							<path class="st3" d="M332.2,217.3c-8.5-10.5-13.5-23.9-13.6-37.5c-0.1-11.3,3.7-22.8,10-32.2c12.2-18.6,34.3-28.8,56.2-26.8
								c0,0-1.3-1.9-1.4-2.1c-0.3-0.4-1.2-1.7-1.7-1.8c-22.7-2.1-44.7,8.7-57,27.9c-6.3,10-9.5,21.8-9.1,33.6
								c0.4,12.7,5.8,24.8,13.2,35.1c1,1.4,2,2.8,3.1,4.1c0.1,0.1,1.5,1.9,1.7,1.8C333.8,219.3,332.3,217.4,332.2,217.3L332.2,217.3
								z"/>
						</g>
					</g>
				</g>
			</g>
			<g>
				<g>
					<g>
						<path class="st3" d="M372.8,184.3c-0.1,1.7-2.7,3-5.8,2.9c-3.1-0.1-5.7-1.6-5.6-3.3c0.1-1.7,2.7-3,5.8-2.9
							C370.3,181,372.8,182.5,372.8,184.3z"/>
					</g>
				</g>
			</g>
			<g>
				<g>
					<g>
						<path d="M372,170.8c-17.3-0.1-27.2,9.4-32.5,17.4c-4.7,7.2-6.6,14.6-7.3,17.3c6.9-9.1,20.7-13.9,29.1-13.9l2.9,0.2
							c0,0,0.5,0.1,0.6,0.2c0.1,0.1-0.2,0.2-0.7,0.2c-0.3-0.1-0.7-0.1-1.1-0.1c-8.2-0.9-24.1,4.3-31,14.6l-0.6,1l0.2-1.1
							c0-0.1,1.6-9.5,7.6-18.6c5.6-8.5,16-18.4,34.5-17.7c0,0,1.3,0.1,0.1,0.5"/>
					</g>
				</g>
			</g>
			<g>
				<g>
					<g>
						<path class="st3" d="M375.3,141.1c0.7,2.5-2.1,5.6-6.6,7c-4.4,1.5-8.7,0.6-9.4-1.7c-0.7-2.5,2.1-5.6,6.6-7
							C370.3,137.9,374.6,138.8,375.3,141.1z"/>
					</g>
				</g>
			</g>
			<g>
				<g>
					<g>
						<g>
							<path d="M367.8,157.7c-16.8,3.3-34.5,14.6-38.9,32c0.3-0.2,0.6-0.3,1-0.5c-3-11.5-1-24.3,4.7-34.6
								c6.6-12,18.8-18.7,31.5-22.9c0.3-0.1,0.6-0.4,1-0.5c-10.9,3.6-21.6,8.9-29.2,17.9c-9.1,10.8-12.5,27-8.9,40.6
								c0-0.1,0.9-0.4,1-0.5c4.3-17,20.6-27.6,37-30.9C367.2,158.2,367.5,157.8,367.8,157.7L367.8,157.7z"/>
						</g>
					</g>
				</g>
			</g>
		</g>
	</g>
	<g>
		<g>
			<g>
				<path class="st3" d="M85.9,304.5c0,0.2-0.2,0.3-0.5,0.3h-0.2c-0.2,0-0.4,0-0.6,0h-0.3c-1.3,0-2.4,0.2-3.2,0.7
					c-0.3,0.2-0.5,0.3-0.6,0.3c-0.2,0-0.3-0.1-0.3-0.4v-1.2c-1.1,1.1-2.5,1.7-4,1.7c-2.2,0-4-0.9-5.5-2.6c-1.4-1.7-2.1-3.9-2.1-6.4
					c0-2.7,0.7-4.9,2.1-6.5c1.4-1.7,3.3-2.6,5.6-2.6c1.8,0,3.1,0.6,4,1.9v-6.1c0-2-0.1-3.2-0.3-3.6c-0.1-0.4-0.4-0.5-0.6-0.5
					c-0.7,0.1-1.2,0.1-1.4,0.1c-0.3,0-0.5-0.1-0.5-0.3c0-0.2,0.1-0.3,0.4-0.3H79c0.7,0,1.9-0.3,3.5-1.1c0.1,0,0.2-0.1,0.3-0.1
					c0.2,0,0.4,0.3,0.4,1c0,0.1,0,0.4,0,0.9c0,0.4,0,0.7,0,1.1v13.5c0,6.2,0,9.5,0.1,10c0,0.2,0.6,0.3,1.8,0.3
					C85.7,304.3,85.9,304.4,85.9,304.5z M80.1,294.7c0-2.5-0.3-4.1-0.9-4.8c-0.7-0.9-1.6-1.3-2.7-1.3c-1.4,0-2.6,0.7-3.3,2.2
					c-0.9,1.5-1.3,3.4-1.3,5.9c0,2.4,0.3,4.4,1.1,6c0.3,0.7,0.7,1.3,1.4,1.7s1.3,0.6,1.9,0.6c0.9,0,1.5-0.2,2.1-0.7
					c0.6-0.5,1.1-1.1,1.3-1.7C80,301.9,80.1,299.3,80.1,294.7z"/>
			</g>
		</g>
		<g>
			<g>
				<path class="st3" d="M101.6,301c0,0.2-0.2,0.7-0.6,1.4c-0.4,0.6-0.9,1.2-1.3,1.6c-1.1,1.2-2.7,1.7-4.5,1.7
					c-2.4,0-4.3-0.9-5.9-2.6s-2.4-3.9-2.4-6.3c0-2.6,0.7-4.8,2.2-6.5s3.4-2.7,5.7-2.7c1.8,0,3.4,0.5,4.7,1.6c1.3,1.1,1.9,2.5,2,4.2
					c-0.9,0.1-1.9,0.2-3.3,0.1h-2.8c-0.2,0-1.7,0-4.7,0.1c-0.1,0.9-0.2,1.7-0.2,2.5c0,2.7,0.5,4.6,1.5,6.1c1,1.4,2.5,2.1,4.3,2.1
					c1.1,0,1.9-0.2,2.5-0.7c0.6-0.4,1.3-1.4,2-2.7c0.1-0.2,0.2-0.3,0.4-0.3C101.5,300.7,101.6,300.8,101.6,301z M98.2,293
					c-0.1-3.1-1.2-4.7-3.3-4.7c-2.1,0-3.4,1.6-4,4.7H98.2z"/>
			</g>
		</g>
	</g>
	<g>
		<g>
			<path class="st3" d="M508.2,263.4c-0.6-53.2-13.8-104.2-43.2-149.4C428.1,57.6,368.9,18.8,303.8,5.1
				C165.9-23.7,30.1,72.8,4.1,211.2c-3,16-4,32.2-4.1,48.5c0,1,0.4,5.6,0.8,8.9c2.1,49.4,15.4,96.7,43,138.9
				c36.9,56.4,96.1,95.3,161.2,108.9c137.8,28.9,273.6-67.6,299.6-206.1c3-16,3.5-32.2,3.6-48.5 M242,505.7
				C116.7,500.5,7.2,392.5,1.5,267c3-143.6,124-257.1,265.2-251.2C399.4,21.3,514.5,142.2,507,277.1
				C492.4,409.8,375.6,511.2,242,505.7z"/>
		</g>
	</g>
</g>
</svg>
